<svg width="1200" height="630" viewBox="0 0 1200 630" fill="none" xmlns="http://www.w3.org/2000/svg">
<g clip-path="url(#clip0_6_2)">
<rect width="1200" height="630" fill="url(#paint0_linear_6_2)"/>
<g style="mix-blend-mode:lighten" opacity="0.2">
<path d="M1207.12 125.429H830.859C761.678 125.429 717.829 200.052 752.634 260.379L984.848 662.861C1000 689.141 1037.98 689.141 1053.13 662.861L1285.39 260.379C1320.15 200.149 1276.3 125.429 1207.17 125.429H1207.12ZM984.66 542.163L934.087 444.289L812.061 226.05C804.011 212.08 813.954 194.181 830.811 194.181H984.612V542.21L984.66 542.163ZM1225.82 226.001L1103.84 444.336L1053.27 542.163V194.134H1207.07C1223.93 194.134 1233.87 212.033 1225.82 226.001Z" fill="#0098EA"/>
</g>
</g>
<defs>
<linearGradient id="paint0_linear_6_2" x1="600" y1="0" x2="600" y2="630" gradientUnits="userSpaceOnUse">
<stop stop-color="#1E2337"/>
<stop offset="1" stop-color="#2D83EC"/>
</linearGradient>
<clipPath id="clip0_6_2">
<rect width="1200" height="630" fill="white"/>
</clipPath>
</defs>
</svg>
