<svg width="13" height="13" viewBox="0 0 13 13" fill="none" xmlns="http://www.w3.org/2000/svg">
<path d="M6.38906 0.00201025C7.86171 0.00201025 9.33437 0.00201025 10.807 0.00201025C11.8148 0.00591725 12.518 0.525448 12.7406 1.44732C12.8695 1.96685 12.7875 2.51764 12.5102 2.97857C10.8773 5.77935 9.24062 8.58014 7.61171 11.3848C7.4164 11.7208 7.22109 12.0606 7.01796 12.3926C6.68984 12.9356 6.08828 12.9395 5.77578 12.3926C4.23281 9.70514 2.68984 7.02545 1.15078 4.34185C0.857807 3.83014 0.568745 3.32232 0.275776 2.81451C-0.466412 1.52545 0.36562 0.0332602 1.86171 0.00982322C3.36953 -0.00970778 4.88124 0.00591721 6.38906 0.00591721V0.00201025ZM7.06874 9.56451C7.13906 9.47467 7.16249 9.44732 7.18203 9.41217C8.56093 7.05279 9.93593 4.69342 11.3109 2.33014C11.6273 1.78326 11.3812 1.36139 10.7562 1.36139C9.62734 1.35748 8.49843 1.3692 7.36953 1.35357C7.11953 1.34967 7.06484 1.42389 7.06484 1.66217C7.07656 4.19342 7.07265 6.72857 7.07265 9.25982L7.06874 9.56451ZM5.67031 9.47076L5.72109 9.45514V6.20514C5.72109 4.67779 5.72109 3.15435 5.72109 1.62701C5.72109 1.51764 5.7914 1.35748 5.55703 1.35748C4.34609 1.36139 3.13515 1.34967 1.92421 1.36529C1.40078 1.3731 1.22499 1.72467 1.48671 2.1856C2.73671 4.3692 3.98671 6.55279 5.24453 8.73639C5.38515 8.98639 5.52578 9.22467 5.67031 9.47076Z" fill="url(#paint0_linear_4_3)"/>
<defs>
<linearGradient id="paint0_linear_4_3" x1="4.08392" y1="3.83422" x2="13.6394" y2="9.02667" gradientUnits="userSpaceOnUse">
<stop stop-color="#808080"/>
<stop offset="0.28" stop-color="#999999"/>
<stop offset="0.56" stop-color="#B3B3B3"/>
<stop offset="0.73" stop-color="#CCCCCC"/>
</linearGradient>
</defs>
</svg>
